<?xml version="1.0" encoding="UTF-8"?>
<!DOCTYPE svg PUBLIC "-//W3C//DTD SVG 1.1//EN" "http://www.w3.org/Graphics/SVG/1.1/DTD/svg11.dtd">
<!-- Creator: CorelDRAW -->
<svg xmlns="http://www.w3.org/2000/svg" xml:space="preserve" width="20px" height="63px" version="1.1" style="shape-rendering:geometricPrecision; text-rendering:geometricPrecision; image-rendering:optimizeQuality; fill-rule:evenodd; clip-rule:evenodd"
viewBox="0 0 1.77 5.57"
 xmlns:xlink="http://www.w3.org/1999/xlink"
 xmlns:xodm="http://www.corel.com/coreldraw/odm/2003">
 <defs>
  <style type="text/css">
   <![CDATA[
    .fil0 {fill:#009933;fill-rule:nonzero}
   ]]>
  </style>
 </defs>
 <g id="Layer_x0020_1">
  <metadata id="CorelCorpID_0Corel-Layer"/>
  <g>
   <path class="fil0" d="M1.77 5.57l-1.34 -0.41 0 0 0.03 -0.01 0.04 -0.02 0.03 -0.02 0.03 -0.01 0.03 -0.02 0.04 -0.02 0.03 -0.02 0.02 -0.02 0.03 -0.02 0.03 -0.02 0.03 -0.03 0.02 -0.02 0.03 -0.02 0.02 -0.03 0.02 -0.02 0.03 -0.03 0.02 -0.03 0.02 -0.02 0.02 -0.03 0.02 -0.03 0.02 -0.03 0.02 -0.03 0.01 -0.03 0.02 -0.03 0.01 -0.04 0.02 -0.03 0.01 -0.03 0.01 -0.04 0.02 -0.03 0.01 -0.04 0.01 -0.03 0.01 -0.04 0.63 1.25zm-0.44 -0.49c0.04,0.03 0.04,0.09 0.01,0.13 -0.03,0.04 -0.09,0.04 -0.13,0.01l0.12 -0.14zm-1.33 -2.46l0.18 0 0 0 0 0.09 0.01 0.09 0 0.09 0.01 0.08 0.01 0.09 0.02 0.09 0.01 0.09 0.02 0.08 0.02 0.09 0.02 0.08 0.03 0.08 0.02 0.09 0.03 0.08 0.04 0.08 0.03 0.08 0.03 0.08 0.04 0.08 0.04 0.07 0.04 0.08 0.05 0.08 0.04 0.07 0.05 0.07 0.05 0.07 0.05 0.07 0.06 0.07 0.05 0.07 0.06 0.07 0.06 0.06 0.06 0.06 0.07 0.06 0.06 0.06 0.07 0.06 -0.12 0.14 -0.07 -0.06 -0.07 -0.06 -0.06 -0.07 -0.07 -0.06 -0.06 -0.07 -0.06 -0.07 -0.06 -0.07 -0.06 -0.08 -0.06 -0.07 -0.05 -0.07 -0.05 -0.08 -0.05 -0.08 -0.05 -0.08 -0.04 -0.08 -0.04 -0.08 -0.04 -0.08 -0.04 -0.09 -0.04 -0.08 -0.03 -0.09 -0.03 -0.08 -0.03 -0.09 -0.02 -0.09 -0.03 -0.09 -0.02 -0.09 -0.02 -0.09 -0.01 -0.09 -0.02 -0.09 -0.01 -0.09 -0.01 -0.1 0 -0.09 -0.01 -0.09 0 -0.1 0 0zm0 0c0,-0.05 0.04,-0.09 0.09,-0.09 0.05,0 0.09,0.04 0.09,0.09l-0.18 0zm1.21 -2.6l0.12 0.14 -0.07 0.06 -0.06 0.06 -0.07 0.06 -0.06 0.06 -0.06 0.07 -0.06 0.06 -0.05 0.07 -0.06 0.07 -0.05 0.07 -0.05 0.07 -0.05 0.07 -0.04 0.08 -0.05 0.07 -0.04 0.08 -0.04 0.08 -0.04 0.07 -0.03 0.08 -0.03 0.08 -0.04 0.09 -0.03 0.08 -0.02 0.08 -0.03 0.08 -0.02 0.09 -0.02 0.08 -0.02 0.09 -0.01 0.08 -0.02 0.09 -0.01 0.09 -0.01 0.09 0 0.08 -0.01 0.09 0 0.09 -0.18 0 0 -0.09 0.01 -0.1 0 -0.09 0.01 -0.09 0.01 -0.09 0.02 -0.1 0.01 -0.09 0.02 -0.09 0.02 -0.09 0.03 -0.09 0.02 -0.08 0.03 -0.09 0.03 -0.09 0.03 -0.08 0.04 -0.09 0.04 -0.08 0.04 -0.09 0.04 -0.08 0.04 -0.08 0.05 -0.08 0.05 -0.07 0.05 -0.08 0.05 -0.08 0.06 -0.07 0.06 -0.07 0.06 -0.08 0.06 -0.06 0.06 -0.07 0.07 -0.07 0.06 -0.06 0.07 -0.07 0.07 -0.06zm0 0c0.04,-0.03 0.1,-0.03 0.13,0.01 0.03,0.04 0.03,0.1 -0.01,0.13l-0.12 -0.14z"/>
  </g>
 </g>
</svg>
