<?xml version="1.0" encoding="UTF-8"?>
<!DOCTYPE svg PUBLIC "-//W3C//DTD SVG 1.1//EN" "http://www.w3.org/Graphics/SVG/1.1/DTD/svg11.dtd">
<!-- Creator: CorelDRAW -->
<svg xmlns="http://www.w3.org/2000/svg" xml:space="preserve" width="20px" height="63px" version="1.1" style="shape-rendering:geometricPrecision; text-rendering:geometricPrecision; image-rendering:optimizeQuality; fill-rule:evenodd; clip-rule:evenodd"
viewBox="0 0 3.55 11.18"
 xmlns:xlink="http://www.w3.org/1999/xlink"
 xmlns:xodm="http://www.corel.com/coreldraw/odm/2003">
 <defs>
  <style type="text/css">
   <![CDATA[
    .fil0 {fill:#009933;fill-rule:nonzero}
   ]]>
  </style>
 </defs>
 <g id="Layer_x0020_1">
  <metadata id="CorelCorpID_0Corel-Layer"/>
  <g>
   <path class="fil0" d="M0 11.18l1.27 -2.5 0 0 0.02 0.07 0.02 0.08 0.02 0.07 0.02 0.07 0.03 0.07 0.02 0.06 0.03 0.07 0.03 0.07 0.03 0.06 0.04 0.06 0.03 0.06 0.04 0.06 0.04 0.06 0.04 0.05 0.04 0.06 0.05 0.05 0.04 0.06 0.05 0.05 0.05 0.05 0.05 0.04 0.05 0.05 0.05 0.05 0.06 0.04 0.05 0.04 0.06 0.04 0.06 0.04 0.06 0.04 0.07 0.04 0.06 0.03 0.07 0.04 0.07 0.03 0.07 0.03 -2.69 0.81zm1.11 -0.69c-0.08,0.07 -0.19,0.06 -0.26,-0.02 -0.06,-0.08 -0.05,-0.19 0.03,-0.26l0.23 0.28zm2.07 -5.22l0.37 0 0 0 0 0.19 -0.01 0.18 -0.01 0.19 -0.02 0.19 -0.03 0.18 -0.02 0.19 -0.04 0.18 -0.04 0.18 -0.04 0.18 -0.05 0.18 -0.05 0.18 -0.06 0.18 -0.06 0.17 -0.06 0.17 -0.07 0.17 -0.08 0.17 -0.08 0.17 -0.09 0.16 -0.08 0.16 -0.1 0.16 -0.1 0.16 -0.1 0.15 -0.1 0.15 -0.12 0.15 -0.11 0.15 -0.12 0.14 -0.12 0.14 -0.13 0.14 -0.13 0.13 -0.14 0.13 -0.13 0.13 -0.15 0.12 -0.23 -0.28 0.13 -0.12 0.13 -0.12 0.13 -0.12 0.12 -0.13 0.12 -0.13 0.12 -0.13 0.11 -0.13 0.11 -0.14 0.11 -0.14 0.1 -0.15 0.09 -0.14 0.1 -0.15 0.08 -0.15 0.09 -0.15 0.08 -0.16 0.08 -0.16 0.07 -0.15 0.06 -0.17 0.07 -0.16 0.06 -0.16 0.05 -0.17 0.05 -0.17 0.04 -0.17 0.05 -0.17 0.03 -0.17 0.03 -0.17 0.03 -0.18 0.02 -0.17 0.02 -0.18 0.01 -0.18 0.01 -0.17 0 -0.18 0 0zm0 0c0,-0.1 0.08,-0.19 0.18,-0.19 0.11,0 0.19,0.09 0.19,0.19l-0.37 0zm-2.3 -4.94l0.23 -0.29 0.15 0.13 0.13 0.12 0.14 0.13 0.13 0.14 0.13 0.13 0.12 0.14 0.12 0.15 0.11 0.14 0.12 0.15 0.1 0.15 0.1 0.16 0.1 0.15 0.1 0.16 0.08 0.17 0.09 0.16 0.08 0.17 0.08 0.16 0.07 0.17 0.06 0.18 0.06 0.17 0.06 0.18 0.05 0.17 0.05 0.18 0.04 0.18 0.04 0.18 0.04 0.19 0.02 0.18 0.03 0.19 0.02 0.18 0.01 0.19 0.01 0.19 0 0.19 -0.37 0 0 -0.18 -0.01 -0.18 -0.01 -0.18 -0.02 -0.17 -0.02 -0.18 -0.03 -0.17 -0.03 -0.17 -0.03 -0.18 -0.05 -0.17 -0.04 -0.17 -0.05 -0.16 -0.05 -0.17 -0.06 -0.17 -0.07 -0.16 -0.06 -0.16 -0.07 -0.16 -0.08 -0.16 -0.08 -0.15 -0.09 -0.15 -0.08 -0.15 -0.1 -0.15 -0.09 -0.15 -0.1 -0.14 -0.11 -0.14 -0.11 -0.14 -0.11 -0.14 -0.12 -0.13 -0.12 -0.13 -0.12 -0.12 -0.13 -0.13 -0.13 -0.12 -0.13 -0.11zm0 0c-0.08,-0.07 -0.09,-0.19 -0.03,-0.26 0.07,-0.08 0.18,-0.09 0.26,-0.03l-0.23 0.29z"/>
  </g>
 </g>
</svg>
